<mxfile host="app.diagrams.net" modified="2023-07-17T12:40:10.036Z" agent="Mozilla/5.0 (Windows NT 10.0; Win64; x64) AppleWebKit/537.36 (KHTML, like Gecko) Chrome/114.0.0.0 Safari/537.36" etag="oAGjnZRNNKY-5p4GdFfi" version="21.2.9" type="device">
  <diagram name="Page-1" id="Ijfzwn00TG1XVkDnPTBO">
    <mxGraphModel dx="1841" dy="1028" grid="1" gridSize="10" guides="1" tooltips="1" connect="1" arrows="1" fold="1" page="1" pageScale="1" pageWidth="850" pageHeight="1100" math="0" shadow="0">
      <root>
        <mxCell id="0" />
        <mxCell id="1" parent="0" />
        <mxCell id="AuxajO8M0nM1ENPeDrqj-1" value="&lt;p style=&quot;margin:0px;margin-top:4px;text-align:center;&quot;&gt;&lt;b&gt;User&lt;/b&gt;&lt;/p&gt;&lt;hr size=&quot;1&quot;&gt;&lt;p style=&quot;margin:0px;margin-left:4px;&quot;&gt;- ID: int&lt;/p&gt;&lt;p style=&quot;margin:0px;margin-left:4px;&quot;&gt;- email: String&lt;br&gt;&lt;/p&gt;&lt;p style=&quot;margin:0px;margin-left:4px;&quot;&gt;- password: String&lt;br&gt;&lt;/p&gt;&lt;p style=&quot;margin:0px;margin-left:4px;&quot;&gt;# address: String&lt;br&gt;&lt;/p&gt;&lt;p style=&quot;margin:0px;margin-left:4px;&quot;&gt;# name: String&lt;br&gt;&lt;/p&gt;&lt;p style=&quot;margin:0px;margin-left:4px;&quot;&gt;+ DOB:String&lt;/p&gt;&lt;hr size=&quot;1&quot;&gt;&lt;p style=&quot;margin:0px;margin-left:4px;&quot;&gt;+ __init__()&lt;/p&gt;&lt;p style=&quot;margin:0px;margin-left:4px;&quot;&gt;+ editUser()&lt;/p&gt;&lt;p style=&quot;margin:0px;margin-left:4px;&quot;&gt;+ deleteuser()&lt;/p&gt;&lt;p style=&quot;margin:0px;margin-left:4px;&quot;&gt;+ search(int)&lt;/p&gt;" style="verticalAlign=top;align=left;overflow=fill;fontSize=12;fontFamily=Helvetica;html=1;whiteSpace=wrap;" parent="1" vertex="1">
          <mxGeometry x="345" y="310" width="160" height="190" as="geometry" />
        </mxCell>
        <mxCell id="AuxajO8M0nM1ENPeDrqj-2" value="&lt;p style=&quot;margin:0px;margin-top:4px;text-align:center;&quot;&gt;&lt;b&gt;Customer&lt;/b&gt;&lt;/p&gt;&lt;hr size=&quot;1&quot;&gt;&lt;p style=&quot;margin:0px;margin-left:4px;&quot;&gt;+ item:List&lt;br&gt;&lt;/p&gt;&lt;p style=&quot;margin:0px;margin-left:4px;&quot;&gt;+ price:float&lt;br&gt;&lt;/p&gt;&lt;hr size=&quot;1&quot;&gt;&lt;p style=&quot;margin:0px;margin-left:4px;&quot;&gt;+ addOrder(int)&lt;/p&gt;&lt;p style=&quot;border-color: var(--border-color); margin: 0px 0px 0px 4px;&quot;&gt;+ addItem()&lt;/p&gt;&lt;p style=&quot;border-color: var(--border-color); margin: 0px 0px 0px 4px;&quot;&gt;+ setprice()&lt;/p&gt;" style="verticalAlign=top;align=left;overflow=fill;fontSize=12;fontFamily=Helvetica;html=1;whiteSpace=wrap;" parent="1" vertex="1">
          <mxGeometry x="505" y="610" width="160" height="120" as="geometry" />
        </mxCell>
        <mxCell id="AuxajO8M0nM1ENPeDrqj-3" value="&lt;p style=&quot;margin:0px;margin-top:4px;text-align:center;&quot;&gt;&lt;b&gt;Employee&lt;/b&gt;&lt;/p&gt;&lt;hr size=&quot;1&quot;&gt;&lt;p style=&quot;margin:0px;margin-left:4px;&quot;&gt;+ role: String&lt;/p&gt;&lt;p style=&quot;margin:0px;margin-left:4px;&quot;&gt;+department:&amp;nbsp; String&lt;/p&gt;&lt;hr size=&quot;1&quot;&gt;&lt;p style=&quot;margin:0px;margin-left:4px;&quot;&gt;+ addRole()&lt;/p&gt;&lt;p style=&quot;margin:0px;margin-left:4px;&quot;&gt;+ dept()&lt;br&gt;&lt;/p&gt;&lt;p style=&quot;margin:0px;margin-left:4px;&quot;&gt;- generateReport()&lt;br&gt;&lt;/p&gt;" style="verticalAlign=top;align=left;overflow=fill;fontSize=12;fontFamily=Helvetica;html=1;whiteSpace=wrap;" parent="1" vertex="1">
          <mxGeometry x="185" y="611" width="160" height="119" as="geometry" />
        </mxCell>
        <mxCell id="AuxajO8M0nM1ENPeDrqj-6" value="" style="endArrow=block;html=1;rounded=0;edgeStyle=orthogonalEdgeStyle;exitX=0.479;exitY=0.01;exitDx=0;exitDy=0;exitPerimeter=0;entryX=0.995;entryY=0.394;entryDx=0;entryDy=0;entryPerimeter=0;endFill=0;" parent="1" source="AuxajO8M0nM1ENPeDrqj-2" target="AuxajO8M0nM1ENPeDrqj-1" edge="1">
          <mxGeometry width="50" height="50" relative="1" as="geometry">
            <mxPoint x="580" y="560" as="sourcePoint" />
            <mxPoint x="620" y="470" as="targetPoint" />
            <Array as="points">
              <mxPoint x="580" y="612" />
              <mxPoint x="580" y="385" />
            </Array>
          </mxGeometry>
        </mxCell>
        <mxCell id="AuxajO8M0nM1ENPeDrqj-7" value="" style="endArrow=block;html=1;rounded=0;edgeStyle=orthogonalEdgeStyle;exitX=0.392;exitY=0;exitDx=0;exitDy=0;exitPerimeter=0;endFill=0;entryX=0.006;entryY=0.42;entryDx=0;entryDy=0;entryPerimeter=0;" parent="1" source="AuxajO8M0nM1ENPeDrqj-3" target="AuxajO8M0nM1ENPeDrqj-1" edge="1">
          <mxGeometry width="50" height="50" relative="1" as="geometry">
            <mxPoint x="248" y="587" as="sourcePoint" />
            <mxPoint x="340" y="380" as="targetPoint" />
            <Array as="points">
              <mxPoint x="248" y="390" />
              <mxPoint x="340" y="390" />
            </Array>
          </mxGeometry>
        </mxCell>
        <mxCell id="AuxajO8M0nM1ENPeDrqj-9" value="&lt;p style=&quot;margin:0px;margin-top:4px;text-align:center;&quot;&gt;&lt;b&gt;Item&lt;/b&gt;&lt;/p&gt;&lt;hr size=&quot;1&quot;&gt;&lt;p style=&quot;margin:0px;margin-left:4px;&quot;&gt;+ itemID:int&lt;/p&gt;&lt;p style=&quot;margin:0px;margin-left:4px;&quot;&gt;+ itemName:String&lt;br&gt;&lt;/p&gt;&lt;p style=&quot;margin:0px;margin-left:4px;&quot;&gt;+ expireDate:String&lt;br&gt;&lt;/p&gt;&lt;p style=&quot;margin:0px;margin-left:4px;&quot;&gt;+ description:String&lt;br&gt;&lt;/p&gt;&lt;p style=&quot;margin:0px;margin-left:4px;&quot;&gt;+ quantity:int&lt;br&gt;&lt;/p&gt;&lt;hr size=&quot;1&quot;&gt;&lt;p style=&quot;margin:0px;margin-left:4px;&quot;&gt;+ __init__()&lt;/p&gt;&lt;p style=&quot;margin:0px;margin-left:4px;&quot;&gt;+ editQuantity()&lt;/p&gt;" style="verticalAlign=top;align=left;overflow=fill;fontSize=12;fontFamily=Helvetica;html=1;whiteSpace=wrap;" parent="1" vertex="1">
          <mxGeometry x="760" y="594" width="160" height="153" as="geometry" />
        </mxCell>
        <mxCell id="AuxajO8M0nM1ENPeDrqj-10" value="" style="endArrow=none;html=1;rounded=0;" parent="1" source="AuxajO8M0nM1ENPeDrqj-2" target="AuxajO8M0nM1ENPeDrqj-9" edge="1">
          <mxGeometry width="50" height="50" relative="1" as="geometry">
            <mxPoint x="580" y="650" as="sourcePoint" />
            <mxPoint x="630" y="600" as="targetPoint" />
          </mxGeometry>
        </mxCell>
        <mxCell id="AuxajO8M0nM1ENPeDrqj-11" value="*" style="edgeLabel;html=1;align=center;verticalAlign=middle;resizable=0;points=[];" parent="AuxajO8M0nM1ENPeDrqj-10" vertex="1" connectable="0">
          <mxGeometry x="-0.8081" relative="1" as="geometry">
            <mxPoint as="offset" />
          </mxGeometry>
        </mxCell>
        <mxCell id="AuxajO8M0nM1ENPeDrqj-12" value="*" style="edgeLabel;html=1;align=center;verticalAlign=middle;resizable=0;points=[];" parent="AuxajO8M0nM1ENPeDrqj-10" vertex="1" connectable="0">
          <mxGeometry x="0.7546" relative="1" as="geometry">
            <mxPoint as="offset" />
          </mxGeometry>
        </mxCell>
      </root>
    </mxGraphModel>
  </diagram>
</mxfile>
